<?xml version="1.0"?>
<svg xmlns="http://www.w3.org/2000/svg" xmlns:xlink="http://www.w3.org/1999/xlink" version="1.1" width="320px" height="320px" viewBox="0 0 320 320"><rect x="0" y="0" width="320" height="320" fill="#ffffff" fill-opacity="1"/><path fill="#000000" fill-opacity="1" d="M15,15L85,15L85,25L15,25ZM115,15L125,15L125,25L115,25ZM135,15L145,15L145,25L135,25ZM155,15L185,15L185,25L155,25ZM205,15L225,15L225,25L205,25ZM235,15L305,15L305,25L235,25ZM15,25L25,25L25,35L15,35ZM75,25L85,25L85,35L75,35ZM95,25L105,25L105,35L95,35ZM115,25L125,25L125,35L115,35ZM145,25L165,25L165,35L145,35ZM185,25L195,25L195,35L185,35ZM205,25L215,25L215,35L205,35ZM235,25L245,25L245,35L235,35ZM295,25L305,25L305,35L295,35ZM15,35L25,35L25,45L15,45ZM35,35L65,35L65,45L35,45ZM75,35L85,35L85,45L75,45ZM135,35L145,35L145,45L135,45ZM175,35L185,35L185,45L175,45ZM205,35L225,35L225,45L205,45ZM235,35L245,35L245,45L235,45ZM255,35L285,35L285,45L255,45ZM295,35L305,35L305,45L295,45ZM15,45L25,45L25,55L15,55ZM35,45L65,45L65,55L35,55ZM75,45L85,45L85,55L75,55ZM95,45L125,45L125,55L95,55ZM135,45L145,45L145,55L135,55ZM165,45L175,45L175,55L165,55ZM185,45L205,45L205,55L185,55ZM235,45L245,45L245,55L235,55ZM255,45L285,45L285,55L255,55ZM295,45L305,45L305,55L295,55ZM15,55L25,55L25,65L15,65ZM35,55L65,55L65,65L35,65ZM75,55L85,55L85,65L75,65ZM105,55L115,55L115,65L105,65ZM155,55L165,55L165,65L155,65ZM195,55L225,55L225,65L195,65ZM235,55L245,55L245,65L235,65ZM255,55L285,55L285,65L255,65ZM295,55L305,55L305,65L295,65ZM15,65L25,65L25,75L15,75ZM75,65L85,65L85,75L75,75ZM95,65L115,65L115,75L95,75ZM125,65L195,65L195,75L125,75ZM205,65L215,65L215,75L205,75ZM235,65L245,65L245,75L235,75ZM295,65L305,65L305,75L295,75ZM15,75L85,75L85,85L15,85ZM95,75L105,75L105,85L95,85ZM115,75L125,75L125,85L115,85ZM135,75L145,75L145,85L135,85ZM155,75L165,75L165,85L155,85ZM175,75L185,75L185,85L175,85ZM195,75L205,75L205,85L195,85ZM215,75L225,75L225,85L215,85ZM235,75L305,75L305,85L235,85ZM105,85L135,85L135,95L105,95ZM155,85L165,85L165,95L155,95ZM175,85L185,85L185,95L175,95ZM195,85L215,85L215,95L195,95ZM15,95L65,95L65,105L15,105ZM75,95L115,95L115,105L75,105ZM125,95L135,95L135,105L125,105ZM155,95L195,95L195,105L155,105ZM215,95L235,95L235,105L215,105ZM245,95L255,95L255,105L245,105ZM265,95L275,95L275,105L265,105ZM285,95L295,95L295,105L285,105ZM25,105L35,105L35,115L25,115ZM45,105L55,105L55,115L45,115ZM65,105L75,105L75,115L65,115ZM115,105L125,105L125,115L115,115ZM135,105L145,105L145,115L135,115ZM175,105L185,105L185,115L175,115ZM235,105L275,105L275,115L235,115ZM285,105L295,105L295,115L285,115ZM15,115L45,115L45,125L15,125ZM65,115L105,115L105,125L65,125ZM115,115L125,115L125,125L115,125ZM145,115L165,115L165,125L145,125ZM185,115L205,115L205,125L185,125ZM245,115L255,115L255,125L245,125ZM265,115L285,115L285,125L265,125ZM45,125L55,125L55,135L45,135ZM65,125L75,125L75,135L65,135ZM85,125L105,125L105,135L85,135ZM135,125L155,125L155,135L135,135ZM175,125L275,125L275,135L175,135ZM295,125L305,125L305,135L295,135ZM15,135L35,135L35,145L15,145ZM65,135L85,135L85,145L65,145ZM95,135L125,135L125,145L95,145ZM135,135L145,135L145,145L135,145ZM165,135L175,135L175,145L165,145ZM185,135L195,135L195,145L185,145ZM215,135L245,135L245,145L215,145ZM15,145L45,145L45,155L15,155ZM95,145L115,145L115,155L95,155ZM155,145L165,145L165,155L155,155ZM175,145L185,145L185,155L175,155ZM245,145L255,145L255,155L245,155ZM265,145L275,145L275,155L265,155ZM285,145L295,145L295,155L285,155ZM25,155L35,155L35,165L25,165ZM55,155L65,155L65,165L55,165ZM75,155L95,155L95,165L75,165ZM105,155L175,155L175,165L105,165ZM185,155L195,155L195,165L185,165ZM205,155L215,155L215,165L205,165ZM265,155L305,155L305,165L265,165ZM25,165L55,165L55,175L25,175ZM65,165L75,165L75,175L65,175ZM85,165L95,165L95,175L85,175ZM105,165L135,165L135,175L105,175ZM175,165L185,165L185,175L175,175ZM205,165L245,165L245,175L205,175ZM255,165L265,165L265,175L255,175ZM285,165L305,165L305,175L285,175ZM25,175L45,175L45,185L25,185ZM75,175L105,175L105,185L75,185ZM115,175L135,175L135,185L115,185ZM145,175L155,175L155,185L145,185ZM165,175L175,175L175,185L165,185ZM185,175L195,175L195,185L185,185ZM225,175L245,175L245,185L225,185ZM15,185L35,185L35,195L15,195ZM55,185L65,185L65,195L55,195ZM85,185L95,185L95,195L85,195ZM105,185L125,185L125,195L105,195ZM135,185L145,185L145,195L135,195ZM155,185L165,185L165,195L155,195ZM175,185L185,185L185,195L175,195ZM215,185L225,185L225,195L215,195ZM235,185L255,185L255,195L235,195ZM285,185L295,185L295,195L285,195ZM15,195L25,195L25,205L15,205ZM35,195L45,195L45,205L35,205ZM65,195L95,195L95,205L65,205ZM105,195L115,195L115,205L105,205ZM145,195L165,195L165,205L145,205ZM185,195L195,195L195,205L185,205ZM265,195L305,195L305,205L265,205ZM15,205L25,205L25,215L15,215ZM65,205L75,205L75,215L65,215ZM85,205L95,205L95,215L85,215ZM105,205L125,205L125,215L105,215ZM135,205L145,205L145,215L135,215ZM155,205L165,205L165,215L155,215ZM175,205L265,205L265,215L175,215ZM275,205L305,205L305,215L275,215ZM15,215L25,215L25,225L15,225ZM35,215L55,215L55,225L35,225ZM75,215L85,215L85,225L75,225ZM95,215L105,215L105,225L95,225ZM135,215L155,215L155,225L135,225ZM165,215L185,215L185,225L165,225ZM195,215L205,215L205,225L195,225ZM215,215L265,215L265,225L215,225ZM275,215L295,215L295,225L275,225ZM95,225L105,225L105,235L95,235ZM115,225L125,225L125,235L115,235ZM155,225L175,225L175,235L155,235ZM205,225L225,225L225,235L205,235ZM255,225L265,225L265,235L255,235ZM285,225L295,225L295,235L285,235ZM15,235L85,235L85,245L15,245ZM95,235L115,235L115,245L95,245ZM125,235L145,235L145,245L125,245ZM185,235L195,235L195,245L185,245ZM215,235L225,235L225,245L215,245ZM235,235L245,235L245,245L235,245ZM255,235L265,235L265,245L255,245ZM275,235L285,235L285,245L275,245ZM15,245L25,245L25,255L15,255ZM75,245L85,245L85,255L75,255ZM125,245L135,245L135,255L125,255ZM165,245L225,245L225,255L165,255ZM255,245L305,245L305,255L255,255ZM15,255L25,255L25,265L15,265ZM35,255L65,255L65,265L35,265ZM75,255L85,255L85,265L75,265ZM95,255L115,255L115,265L95,265ZM125,255L135,255L135,265L125,265ZM165,255L205,255L205,265L165,265ZM215,255L305,255L305,265L215,265ZM15,265L25,265L25,275L15,275ZM35,265L65,265L65,275L35,275ZM75,265L85,265L85,275L75,275ZM95,265L105,265L105,275L95,275ZM135,265L155,265L155,275L135,275ZM175,265L185,265L185,275L175,275ZM215,265L265,265L265,275L215,275ZM15,275L25,275L25,285L15,285ZM35,275L65,275L65,285L35,285ZM75,275L85,275L85,285L75,285ZM95,275L125,275L125,285L95,285ZM145,275L165,275L165,285L145,285ZM185,275L195,275L195,285L185,285ZM205,275L215,275L215,285L205,285ZM245,275L265,275L265,285L245,285ZM275,275L295,275L295,285L275,285ZM15,285L25,285L25,295L15,295ZM75,285L85,285L85,295L75,295ZM95,285L105,285L105,295L95,295ZM115,285L125,285L125,295L115,295ZM135,285L155,285L155,295L135,295ZM185,285L205,285L205,295L185,295ZM265,285L285,285L285,295L265,295ZM295,285L305,285L305,295L295,295ZM15,295L85,295L85,305L15,305ZM95,295L125,295L125,305L95,305ZM135,295L145,295L145,305L135,305ZM155,295L185,295L185,305L155,305ZM195,295L205,295L205,305L195,305ZM235,295L285,295L285,305L235,305Z"/></svg>
